<svg width="128" height="128" viewBox="0 0 128 128" fill="none" xmlns="http://www.w3.org/2000/svg">
<g filter="url(#filter0_iii_11_305)">
<rect width="128" height="128" rx="64" fill="#F6F6F6"/>
<g filter="url(#filter1_di_11_305)">
<ellipse cx="52.5162" cy="74.0237" rx="30.8152" ry="30.8698" fill="url(#paint0_linear_11_305)"/>
<rect x="45.0781" y="23.5367" width="57.5435" height="57.6524" rx="7.08395" fill="url(#paint1_linear_11_305)"/>
</g>
<path d="M38.7968 67.9772L35.0243 76.8843L34.4751 77.8821C33.6976 79.2947 31.9528 79.855 30.4983 79.159C29.0917 78.4859 28.4221 76.8579 28.9481 75.39L29.7979 73.0182L33.3623 65.1685L39.7481 55.0827C40.9027 53.2591 42.3689 51.6527 44.0797 50.3367L45.7127 49.0805C46.7852 48.2555 48.0265 47.6773 49.3482 47.3872L50.4758 47.1397C52.6787 46.6561 54.9794 47.2698 56.6488 48.7862C57.0529 49.1532 57.4124 49.5665 57.7199 50.0175L57.9901 50.4138C59.115 52.0637 59.7707 53.988 59.8872 55.9815L59.9544 57.131V64.3895C59.9544 65.4174 59.9139 66.4644 60.215 67.4472C60.4515 68.2188 60.9007 69.0391 61.7526 69.2554C62.3311 69.4024 62.953 69.1469 63.5232 68.7437C65.1459 67.5963 65.9911 65.6817 66.8354 63.8827L68.2228 60.9265C68.8107 59.6737 69.5697 58.5085 70.4779 57.4643L72.356 55.305C73.5466 53.9362 75.1974 53.0509 76.9963 52.8166L77.1518 52.7963C79.7224 52.4615 82.2729 53.5435 83.8185 55.6246C84.4486 56.473 84.8829 57.4505 85.0902 58.4868L85.603 61.0508C86.0466 63.2692 85.2824 66.0601 86.8711 67.6707C87.0723 67.8747 87.3314 68.0231 87.6635 68.0839C89.3491 68.3925 91.5727 66.1565 92.1168 65.5762C92.2009 65.4865 92.2812 65.3946 92.3619 65.3019L95.0846 62.1725C95.9832 61.1397 96.9943 60.2105 98.0991 59.4021L99.2254 58.5779C99.5992 58.3044 100.003 58.0724 100.431 57.8943C102.532 57.0194 103.733 56.6939 105.713 56.7879C105.874 56.7955 106 56.9294 106 57.0905C106 57.214 105.926 57.3253 105.812 57.3727L104.155 58.0614C103.987 58.1312 103.825 58.2162 103.673 58.3153L102.941 58.7907C101.827 59.5142 100.835 60.4099 100.002 61.4445L98.7798 62.9616L95.6023 67.277C95.0337 68.0493 94.393 68.7658 93.6888 69.4168L91.9163 71.0556C90.9364 71.9614 89.7163 72.5657 88.4019 72.7959L88.1545 72.8393C87.1883 73.0085 86.1952 72.936 85.2639 72.6281C84.0448 72.2251 82.989 71.438 82.2546 70.3848L81.7616 69.6778C81.4675 69.256 81.2691 68.7751 81.1802 68.2687L80.7285 65.6971C80.2343 62.8832 81.4901 58.6073 78.8086 57.6214C78.5522 57.5272 78.2713 57.5451 77.9777 57.6459C74.0783 58.9844 72.858 63.9402 70.93 67.5844L70.0129 69.3179C69.4152 70.4477 68.6189 71.4606 67.6622 72.3082L66.7291 73.1348C65.6378 74.1015 64.2664 74.6946 62.8146 74.8275C59.7421 75.1089 56.8613 73.2999 55.78 70.4103L55.0894 68.5648C54.6675 67.4373 54.4655 66.2393 54.4944 65.0357L54.6414 58.902C54.6414 58.902 54.6414 54.1067 52.7887 52.8261C51.7888 52.1351 50.0035 53.0944 48.5716 54.1241C47.0367 55.228 45.7967 56.6755 44.6223 58.1571C42.2474 61.1534 40.2879 64.4566 38.7968 67.9772Z" fill="#003A5E"/>
</g>
<defs>
<filter id="filter0_iii_11_305" x="0" y="0" width="160" height="160" filterUnits="userSpaceOnUse" color-interpolation-filters="sRGB">
<feFlood flood-opacity="0" result="BackgroundImageFix"/>
<feBlend mode="normal" in="SourceGraphic" in2="BackgroundImageFix" result="shape"/>
<feColorMatrix in="SourceAlpha" type="matrix" values="0 0 0 0 0 0 0 0 0 0 0 0 0 0 0 0 0 0 127 0" result="hardAlpha"/>
<feOffset dx="1" dy="1"/>
<feComposite in2="hardAlpha" operator="arithmetic" k2="-1" k3="1"/>
<feColorMatrix type="matrix" values="0 0 0 0 1 0 0 0 0 1 0 0 0 0 1 0 0 0 1 0"/>
<feBlend mode="normal" in2="shape" result="effect1_innerShadow_11_305"/>
<feColorMatrix in="SourceAlpha" type="matrix" values="0 0 0 0 0 0 0 0 0 0 0 0 0 0 0 0 0 0 127 0" result="hardAlpha"/>
<feOffset dx="-1" dy="-1"/>
<feComposite in2="hardAlpha" operator="arithmetic" k2="-1" k3="1"/>
<feColorMatrix type="matrix" values="0 0 0 0 0 0 0 0 0 0 0 0 0 0 0 0 0 0 0.3 0"/>
<feBlend mode="normal" in2="effect1_innerShadow_11_305" result="effect2_innerShadow_11_305"/>
<feColorMatrix in="SourceAlpha" type="matrix" values="0 0 0 0 0 0 0 0 0 0 0 0 0 0 0 0 0 0 127 0" result="hardAlpha"/>
<feOffset dx="32" dy="32"/>
<feGaussianBlur stdDeviation="32"/>
<feComposite in2="hardAlpha" operator="arithmetic" k2="-1" k3="1"/>
<feColorMatrix type="matrix" values="0 0 0 0 1 0 0 0 0 1 0 0 0 0 1 0 0 0 0.15 0"/>
<feBlend mode="normal" in2="effect2_innerShadow_11_305" result="effect3_innerShadow_11_305"/>
</filter>
<filter id="filter1_di_11_305" x="21.701" y="23.5367" width="81.9205" height="82.3567" filterUnits="userSpaceOnUse" color-interpolation-filters="sRGB">
<feFlood flood-opacity="0" result="BackgroundImageFix"/>
<feColorMatrix in="SourceAlpha" type="matrix" values="0 0 0 0 0 0 0 0 0 0 0 0 0 0 0 0 0 0 127 0" result="hardAlpha"/>
<feOffset dx="1" dy="1"/>
<feComposite in2="hardAlpha" operator="out"/>
<feColorMatrix type="matrix" values="0 0 0 0 0 0 0 0 0 0 0 0 0 0 0 0 0 0 0.4 0"/>
<feBlend mode="normal" in2="BackgroundImageFix" result="effect1_dropShadow_11_305"/>
<feBlend mode="normal" in="SourceGraphic" in2="effect1_dropShadow_11_305" result="shape"/>
<feColorMatrix in="SourceAlpha" type="matrix" values="0 0 0 0 0 0 0 0 0 0 0 0 0 0 0 0 0 0 127 0" result="hardAlpha"/>
<feOffset dx="1" dy="1"/>
<feComposite in2="hardAlpha" operator="arithmetic" k2="-1" k3="1"/>
<feColorMatrix type="matrix" values="0 0 0 0 1 0 0 0 0 1 0 0 0 0 1 0 0 0 0.25 0"/>
<feBlend mode="normal" in2="shape" result="effect2_innerShadow_11_305"/>
</filter>
<linearGradient id="paint0_linear_11_305" x1="52.5162" y1="43.1539" x2="52.5162" y2="104.893" gradientUnits="userSpaceOnUse">
<stop stop-color="#F8A51C"/>
<stop offset="0.604167" stop-color="#FA7E4F"/>
<stop offset="0.973958" stop-color="#FB5B5C"/>
</linearGradient>
<linearGradient id="paint1_linear_11_305" x1="73.8499" y1="23.5367" x2="73.8499" y2="81.1892" gradientUnits="userSpaceOnUse">
<stop stop-color="#42E3FD"/>
<stop offset="0.460751" stop-color="#31C6ED"/>
<stop offset="1" stop-color="#78B0DE"/>
</linearGradient>
</defs>
</svg>
