<svg width="128" height="128" viewBox="0 0 128 128" fill="none" xmlns="http://www.w3.org/2000/svg">
<g filter="url(#filter0_iii_11_323)">
<g clip-path="url(#clip0_11_323)">
<rect width="128" height="128" rx="64" fill="url(#paint0_linear_11_323)"/>
<g filter="url(#filter1_ddi_11_323)">
<path fill-rule="evenodd" clip-rule="evenodd" d="M36.15 25.8C37.1165 25.8 37.9 25.0165 37.9 24.05C37.9 24.0333 37.8998 24.0166 37.8993 24H41.4007C41.4002 24.0166 41.4 24.0333 41.4 24.05C41.4 25.0165 42.1835 25.8 43.15 25.8C44.1165 25.8 44.9 25.0165 44.9 24.05C44.9 24.0333 44.8998 24.0166 44.8993 24H48.3007C48.3002 24.0166 48.3 24.0333 48.3 24.05C48.3 25.0165 49.0835 25.8 50.05 25.8C51.0165 25.8 51.8 25.0165 51.8 24.05C51.8 24.0333 51.7998 24.0166 51.7993 24H55.3007C55.3002 24.0166 55.3 24.0333 55.3 24.05C55.3 25.0165 56.0835 25.8 57.05 25.8C58.0165 25.8 58.8 25.0165 58.8 24.05C58.8 24.0333 58.7998 24.0166 58.7993 24H62.3007C62.3002 24.0166 62.3 24.0333 62.3 24.05C62.3 25.0165 63.0835 25.8 64.05 25.8C65.0165 25.8 65.8 25.0165 65.8 24.05C65.8 24.0333 65.7998 24.0166 65.7993 24H69.3007C69.3002 24.0166 69.3 24.0333 69.3 24.05C69.3 25.0165 70.0835 25.8 71.05 25.8C72.0165 25.8 72.8 25.0165 72.8 24.05C72.8 24.0333 72.7998 24.0166 72.7993 24H76.2007C76.2002 24.0166 76.2 24.0333 76.2 24.05C76.2 25.0165 76.9835 25.8 77.95 25.8C78.9165 25.8 79.7 25.0165 79.7 24.05C79.7 24.0333 79.6998 24.0166 79.6993 24H83.2007C83.2002 24.0166 83.2 24.0333 83.2 24.05C83.2 25.0165 83.9835 25.8 84.95 25.8C85.9165 25.8 86.7 25.0165 86.7 24.05C86.7 24.0333 86.6998 24.0166 86.6993 24H90.2007C90.2002 24.0166 90.2 24.0333 90.2 24.05C90.2 25.0165 90.9835 25.8 91.95 25.8C92.9165 25.8 93.7 25.0165 93.7 24.05C93.7 24.0333 93.6998 24.0166 93.6993 24H97V98.7C97 101.627 94.6271 104 91.7 104H36.3C33.3729 104 31 101.627 31 98.7V24H34.4007C34.4002 24.0166 34.4 24.0333 34.4 24.05C34.4 25.0165 35.1835 25.8 36.15 25.8Z" fill="#DFDFDF"/>
</g>
<path d="M38.5 46H89.5M38.5 60.5H89.5M89.5 75H38.5M38.5 89.5H89.5" stroke="#B8B8B8" stroke-width="1.3" stroke-linecap="round"/>
</g>
</g>
<defs>
<filter id="filter0_iii_11_323" x="0" y="0" width="160" height="160" filterUnits="userSpaceOnUse" color-interpolation-filters="sRGB">
<feFlood flood-opacity="0" result="BackgroundImageFix"/>
<feBlend mode="normal" in="SourceGraphic" in2="BackgroundImageFix" result="shape"/>
<feColorMatrix in="SourceAlpha" type="matrix" values="0 0 0 0 0 0 0 0 0 0 0 0 0 0 0 0 0 0 127 0" result="hardAlpha"/>
<feOffset dx="1" dy="1"/>
<feComposite in2="hardAlpha" operator="arithmetic" k2="-1" k3="1"/>
<feColorMatrix type="matrix" values="0 0 0 0 1 0 0 0 0 1 0 0 0 0 1 0 0 0 0.5 0"/>
<feBlend mode="normal" in2="shape" result="effect1_innerShadow_11_323"/>
<feColorMatrix in="SourceAlpha" type="matrix" values="0 0 0 0 0 0 0 0 0 0 0 0 0 0 0 0 0 0 127 0" result="hardAlpha"/>
<feOffset dx="-1" dy="-1"/>
<feComposite in2="hardAlpha" operator="arithmetic" k2="-1" k3="1"/>
<feColorMatrix type="matrix" values="0 0 0 0 0 0 0 0 0 0 0 0 0 0 0 0 0 0 0.3 0"/>
<feBlend mode="normal" in2="effect1_innerShadow_11_323" result="effect2_innerShadow_11_323"/>
<feColorMatrix in="SourceAlpha" type="matrix" values="0 0 0 0 0 0 0 0 0 0 0 0 0 0 0 0 0 0 127 0" result="hardAlpha"/>
<feOffset dx="32" dy="32"/>
<feGaussianBlur stdDeviation="32"/>
<feComposite in2="hardAlpha" operator="arithmetic" k2="-1" k3="1"/>
<feColorMatrix type="matrix" values="0 0 0 0 1 0 0 0 0 1 0 0 0 0 1 0 0 0 0.15 0"/>
<feBlend mode="normal" in2="effect2_innerShadow_11_323" result="effect3_innerShadow_11_323"/>
</filter>
<filter id="filter1_ddi_11_323" x="0" y="4" width="130" height="144" filterUnits="userSpaceOnUse" color-interpolation-filters="sRGB">
<feFlood flood-opacity="0" result="BackgroundImageFix"/>
<feColorMatrix in="SourceAlpha" type="matrix" values="0 0 0 0 0 0 0 0 0 0 0 0 0 0 0 0 0 0 127 0" result="hardAlpha"/>
<feOffset dx="1" dy="12"/>
<feGaussianBlur stdDeviation="16"/>
<feComposite in2="hardAlpha" operator="out"/>
<feColorMatrix type="matrix" values="0 0 0 0 0 0 0 0 0 0 0 0 0 0 0 0 0 0 0.25 0"/>
<feBlend mode="normal" in2="BackgroundImageFix" result="effect1_dropShadow_11_323"/>
<feColorMatrix in="SourceAlpha" type="matrix" values="0 0 0 0 0 0 0 0 0 0 0 0 0 0 0 0 0 0 127 0" result="hardAlpha"/>
<feOffset dx="1" dy="1"/>
<feGaussianBlur stdDeviation="4"/>
<feComposite in2="hardAlpha" operator="out"/>
<feColorMatrix type="matrix" values="0 0 0 0 0 0 0 0 0 0 0 0 0 0 0 0 0 0 0.25 0"/>
<feBlend mode="normal" in2="effect1_dropShadow_11_323" result="effect2_dropShadow_11_323"/>
<feBlend mode="normal" in="SourceGraphic" in2="effect2_dropShadow_11_323" result="shape"/>
<feColorMatrix in="SourceAlpha" type="matrix" values="0 0 0 0 0 0 0 0 0 0 0 0 0 0 0 0 0 0 127 0" result="hardAlpha"/>
<feOffset dy="12"/>
<feGaussianBlur stdDeviation="16"/>
<feComposite in2="hardAlpha" operator="arithmetic" k2="-1" k3="1"/>
<feColorMatrix type="matrix" values="0 0 0 0 1 0 0 0 0 1 0 0 0 0 1 0 0 0 1 0"/>
<feBlend mode="normal" in2="shape" result="effect3_innerShadow_11_323"/>
</filter>
<linearGradient id="paint0_linear_11_323" x1="64" y1="0" x2="64" y2="128" gradientUnits="userSpaceOnUse">
<stop stop-color="#FEE47A"/>
<stop offset="1" stop-color="#FFCD05"/>
</linearGradient>
<clipPath id="clip0_11_323">
<rect width="128" height="128" rx="64" fill="white"/>
</clipPath>
</defs>
</svg>
