<svg width="128" height="128" viewBox="0 0 128 128" fill="none" xmlns="http://www.w3.org/2000/svg">
<g filter="url(#filter0_iii_11_360)">
<rect width="128" height="128" rx="64" fill="#2D2D2E"/>
<path fill-rule="evenodd" clip-rule="evenodd" d="M63.5654 33.0547C63.6221 32.7459 64.0647 32.7459 64.1213 33.0547L64.9354 37.4917C65.2359 37.5039 65.5352 37.521 65.833 37.5431L67.1574 33.2312C67.2495 32.931 67.6892 32.9825 67.7095 33.2958L68.0018 37.7935C68.2993 37.8403 68.5951 37.892 68.8891 37.9486L70.7045 33.8228C70.8309 33.5354 71.2616 33.6376 71.2454 33.9512L71.0128 38.4492C71.3029 38.5304 71.591 38.6164 71.877 38.7071L74.1588 34.8215C74.3178 34.5507 74.7336 34.7023 74.6811 35.0119L73.927 39.4521C74.2054 39.5665 74.4814 39.6856 74.755 39.8091L77.4735 36.2138C77.6629 35.9634 78.0583 36.1623 77.9701 36.4636L76.7042 40.7882C76.9669 40.934 77.2268 41.0842 77.4839 41.2385L80.6038 37.9809C80.821 37.7541 81.1907 37.9977 81.068 38.2867L79.3068 42.4378C79.5503 42.6127 79.7906 42.7916 80.0278 42.9745L83.5074 40.0988C83.7494 39.8988 84.0884 40.1836 83.933 40.4565L81.7001 44.3767C81.9214 44.5782 82.1393 44.7835 82.3537 44.9924L86.145 42.5389C86.4086 42.3683 86.7122 42.6906 86.5261 42.9436L83.8528 46.578C84.0494 46.8037 84.2421 47.0328 84.431 47.2651L88.4809 45.2681C88.7626 45.1292 89.0268 45.4846 88.8125 45.7143L85.7363 49.0125C85.9056 49.2596 86.0707 49.5097 86.2316 49.7627L90.4836 48.2496C90.7795 48.1442 91.0007 48.528 90.7612 48.7312L87.3247 51.6485C87.4642 51.9139 87.5993 52.1818 87.7299 52.4524L92.126 51.4429C92.4322 51.3726 92.6074 51.7794 92.3459 51.9535L88.5951 54.4517C88.7026 54.7315 88.8055 55.0136 88.9037 55.2979L93.386 54.8049C93.6983 54.7705 93.8251 55.195 93.5452 55.3376L89.5286 57.3845C89.6025 57.6746 89.6716 57.9666 89.7358 58.2604L94.2465 58.2902C94.5607 58.2922 94.6375 58.7285 94.3429 58.8377L90.1124 60.4064C90.1518 60.7024 90.1863 60.9999 90.2158 61.2989L94.6959 61.8516C95.0077 61.89 95.0334 62.3323 94.7282 62.4066L90.3409 63.4752C90.3434 63.6246 90.3447 63.7744 90.3447 63.9245C90.3447 64.0741 90.3434 64.2234 90.3409 64.3724L94.7282 65.441C95.0334 65.5153 95.0077 65.9575 94.6959 65.996L90.2159 66.5487C90.1864 66.8477 90.1519 67.1452 90.1125 67.4412L94.3429 69.0099C94.6375 69.1191 94.5607 69.5553 94.2465 69.5574L89.7361 69.5872C89.6719 69.881 89.6028 70.1731 89.5289 70.4632L93.5452 72.51C93.8251 72.6526 93.6983 73.077 93.386 73.0427L88.9042 72.5497C88.806 72.8341 88.703 73.1163 88.5955 73.3962L92.3459 75.8941C92.6074 76.0682 92.4322 76.475 92.126 76.4047L87.7305 75.3954C87.5999 75.666 87.4647 75.9341 87.3252 76.1995L90.7612 79.1163C91.0007 79.3196 90.7795 79.7033 90.4836 79.598L86.2324 78.0851C86.0714 78.3382 85.9062 78.5885 85.7369 78.8357L88.8125 82.1333C89.0268 82.3629 88.7626 82.7184 88.4809 82.5795L84.4318 80.5829C84.2428 80.8153 84.05 81.0445 83.8534 81.2703L86.5261 84.904C86.7122 85.157 86.4086 85.4793 86.145 85.3087L82.3545 82.8557C82.1401 83.0647 81.9221 83.2701 81.7006 83.4718L83.933 87.3911C84.0884 87.6639 83.7494 87.9488 83.5074 87.7488L80.0287 84.8738C79.7914 85.0568 79.5508 85.2359 79.3072 85.4109L81.068 89.5608C81.1907 89.8499 80.821 90.0935 80.6038 89.8667L77.4848 86.6099C77.2275 86.7644 76.9674 86.9146 76.7046 87.0605L77.9701 91.3839C78.0583 91.6853 77.6629 91.8842 77.4735 91.6338L74.7558 88.0395C74.482 88.1631 74.2058 88.2823 73.9272 88.3968L74.6811 92.8357C74.7336 93.1452 74.3178 93.2969 74.1588 93.0261L71.8777 89.1417C71.5915 89.2324 71.3032 89.3185 71.0128 89.3998L71.2454 93.8964C71.2616 94.21 70.8309 94.3122 70.7045 94.0248L68.8897 89.9002C68.5954 89.9569 68.2994 90.0086 68.0017 90.0555L67.7095 94.5518C67.6892 94.8651 67.2495 94.9165 67.1574 94.6164L65.8334 90.3058C65.5354 90.3279 65.2359 90.3451 64.9351 90.3572L64.1213 94.7929C64.0647 95.1017 63.6221 95.1017 63.5654 94.7929L62.7516 90.3573C62.4509 90.3451 62.1514 90.3279 61.8533 90.3059L60.5294 94.6164C60.4372 94.9165 59.9976 94.8651 59.9773 94.5518L59.6851 90.0556C59.3874 90.0087 59.0913 89.957 58.797 89.9003L56.9823 94.0248C56.8558 94.3122 56.4252 94.21 56.4414 93.8964L56.6739 89.3999C56.3836 89.3187 56.0952 89.2326 55.809 89.1418L53.528 93.0261C53.369 93.2968 52.9531 93.1452 53.0057 92.8357L53.7595 88.397C53.4809 88.2825 53.2046 88.1634 52.9309 88.0397L50.2133 91.6338C50.0239 91.8842 49.6285 91.6853 49.7167 91.3839L50.9821 87.0608C50.7192 86.9149 50.4591 86.7646 50.2018 86.6101L47.083 89.8667C46.8658 90.0935 46.4961 89.8499 46.6187 89.5608L48.3794 85.4112C48.1357 85.2362 47.8952 85.0571 47.6578 84.8741L44.1794 87.7488C43.9373 87.9488 43.5984 87.6639 43.7538 87.3911L45.986 83.4722C45.7645 83.2704 45.5464 83.065 45.3319 82.856L41.5418 85.3087C41.2781 85.4793 40.9745 85.157 41.1606 84.904L43.8331 81.2707C43.6365 81.0448 43.4436 80.8156 43.2545 80.5831L39.2059 82.5795C38.9242 82.7184 38.66 82.3629 38.8742 82.1333L41.9496 78.836C41.7802 78.5888 41.615 78.3385 41.4539 78.0853L37.2032 79.598C36.9073 79.7033 36.6861 79.3196 36.9255 79.1163L40.3612 76.1998C40.2216 75.9343 40.0864 75.6662 39.9557 75.3955L35.5607 76.4047C35.2546 76.475 35.0794 76.0682 35.3408 75.8941L39.0908 73.3965C38.9832 73.1165 38.8803 72.8342 38.782 72.5497L34.3008 73.0427C33.9885 73.077 33.8617 72.6526 34.1415 72.51L38.1573 70.4635C38.0834 70.1733 38.0143 69.8811 37.9501 69.5871L33.4403 69.5574C33.1261 69.5553 33.0493 69.1191 33.3439 69.0099L37.5737 67.4414C37.5343 67.1453 37.4998 66.8477 37.4703 66.5486L32.9908 65.996C32.679 65.9575 32.6533 65.5153 32.9586 65.441L37.3453 64.3726C37.3428 64.2235 37.3415 64.0741 37.3415 63.9245C37.3415 63.7744 37.3428 63.6246 37.3453 63.475L32.9586 62.4066C32.6533 62.3323 32.679 61.89 32.9908 61.8516L37.4704 61.299C37.4999 60.9999 37.5344 60.7023 37.5738 60.4062L33.3439 58.8377C33.0493 58.7285 33.1261 58.2922 33.4403 58.2902L37.9504 58.2604C38.0146 57.9665 38.0837 57.6744 38.1576 57.3842L34.1415 55.3376C33.8617 55.195 33.9885 54.7705 34.3008 54.8049L38.7825 55.2979C38.8807 55.0135 38.9837 54.7313 39.0912 54.4514L35.3408 51.9535C35.0794 51.7794 35.2546 51.3726 35.5607 51.4429L39.9563 52.4522C40.087 52.1816 40.2221 51.9136 40.3617 51.6482L36.9255 48.7312C36.6861 48.528 36.9073 48.1442 37.2032 48.2496L41.4547 49.7626C41.6156 49.5095 41.7808 49.2593 41.9501 49.0121L38.8742 45.7143C38.66 45.4846 38.9242 45.1292 39.2059 45.2681L43.2553 47.2649C43.4443 47.0325 43.6371 46.8034 43.8337 46.5776L41.1606 42.9436C40.9745 42.6906 41.2781 42.3683 41.5418 42.5389L45.3327 44.9922C45.5471 44.7833 45.7651 44.5779 45.9865 44.3763L43.7538 40.4565C43.5984 40.1836 43.9373 39.8988 44.1794 40.0988L47.6587 42.9742C47.8959 42.7913 48.1363 42.6124 48.3799 42.4374L46.6187 38.2867C46.4961 37.9977 46.8658 37.7541 47.083 37.9809L50.2026 41.2383C50.4598 41.0839 50.7197 40.9338 50.9825 40.7879L49.7167 36.4636C49.6285 36.1623 50.0239 35.9634 50.2133 36.2138L52.9316 39.8089C53.2052 39.6854 53.4813 39.5663 53.7597 39.4519L53.0057 35.0119C52.9531 34.7023 53.369 34.5507 53.528 34.8215L55.8097 38.7069C56.0957 38.6162 56.3838 38.5302 56.674 38.449L56.4414 33.9512C56.4252 33.6376 56.8558 33.5354 56.9823 33.8228L58.7976 37.9485C59.0917 37.8919 59.3875 37.8402 59.685 37.7934L59.9773 33.2958C59.9976 32.9825 60.4372 32.931 60.5294 33.2312L61.8537 37.5431C62.1516 37.521 62.4508 37.5039 62.7514 37.4917L63.5654 33.0547ZM63.8434 86.2047C76.1488 86.2047 86.1243 76.2292 86.1243 63.9238C86.1243 51.6183 76.1488 41.6428 63.8434 41.6428C51.5379 41.6428 41.5624 51.6183 41.5624 63.9238C41.5624 76.2292 51.5379 86.2047 63.8434 86.2047Z" fill="url(#paint0_linear_11_360)"/>
<g filter="url(#filter1_di_11_360)">
<path fill-rule="evenodd" clip-rule="evenodd" d="M64.1766 15.6892C64.1037 15.3248 63.5828 15.3248 63.5098 15.6892L61.8826 23.8186C61.0837 23.8571 60.291 23.9188 59.505 24.0033L56.627 16.2309C56.4979 15.8824 55.9834 15.9639 55.9684 16.3352L55.6332 24.6117C54.8503 24.7744 54.0757 24.9599 53.3101 25.1674L49.255 17.9469C49.073 17.6229 48.5776 17.7839 48.6209 18.1529L49.5842 26.3772C48.8376 26.6609 48.1016 26.9662 47.3771 27.2924L42.2423 20.7951C42.0119 20.5035 41.5477 20.74 41.6482 21.0978L43.8873 29.0741C43.1962 29.4707 42.518 29.8873 41.8535 30.323L35.7614 24.7052C35.4882 24.4533 35.0668 24.7595 35.222 25.0971L38.6837 32.63C38.0643 33.1286 37.46 33.6453 36.8716 34.1791L29.972 29.581C29.6628 29.3749 29.2945 29.7432 29.5005 30.0525L34.0987 36.952C33.5648 37.5404 33.0482 38.1447 32.5495 38.7641L25.0166 35.3024C24.679 35.1473 24.3728 35.5687 24.6247 35.8418L30.2426 41.9339C29.8068 42.5984 29.3903 43.2767 28.9936 43.9678L21.0173 41.7286C20.6596 41.6282 20.4231 42.0923 20.7146 42.3227L27.212 47.4575C26.8858 48.1821 26.5805 48.918 26.2968 49.6647L18.0725 48.7013C17.7034 48.6581 17.5425 49.1535 17.8665 49.3354L25.087 53.3906C24.8794 54.1561 24.694 54.9307 24.5313 55.7137L16.2547 56.0488C15.8834 56.0639 15.8019 56.5784 16.1504 56.7074L23.9228 59.5854C23.8384 60.3714 23.7766 61.1642 23.7382 61.963L15.6087 63.5903C15.2444 63.6632 15.2444 64.1841 15.6087 64.257L23.7382 65.8843C23.7766 66.6832 23.8384 67.4759 23.9228 68.2619L16.1504 71.1399C15.8019 71.2689 15.8834 71.7834 16.2547 71.7985L24.5312 72.1336C24.6939 72.9166 24.8794 73.6912 25.087 74.4568L17.8665 78.5119C17.5425 78.6938 17.7034 79.1892 18.0725 79.146L26.2967 78.1827C26.5804 78.9293 26.8857 79.6653 27.2119 80.3898L20.7146 85.5246C20.4231 85.755 20.6596 86.2191 21.0173 86.1187L28.9935 83.8796C29.3902 84.5707 29.8068 85.2489 30.2425 85.9134L24.6247 92.0055C24.3728 92.2786 24.679 92.7001 25.0166 92.5449L32.5494 89.0832C33.0481 89.7027 33.5647 90.307 34.0986 90.8954L29.5005 97.7949C29.2945 98.1041 29.6628 98.4724 29.972 98.2663L36.8715 93.6683C37.4599 94.2021 38.0642 94.7188 38.6836 95.2175L35.222 102.75C35.0668 103.088 35.4882 103.394 35.7614 103.142L41.8534 97.5244C42.5179 97.9602 43.1961 98.3768 43.8873 98.7734L41.6482 106.75C41.5477 107.107 42.0119 107.344 42.2423 107.052L47.377 100.555C48.1016 100.881 48.8375 101.187 49.5842 101.47L48.6209 109.694C48.5776 110.063 49.073 110.224 49.255 109.9L53.31 102.68C54.0756 102.888 54.8502 103.073 55.6332 103.236L55.9684 111.512C55.9834 111.883 56.4979 111.965 56.627 111.616L59.5049 103.844C60.2909 103.929 61.0837 103.99 61.8826 104.029L63.5098 112.158C63.5828 112.523 64.1037 112.523 64.1766 112.158L65.8038 104.029C66.6027 103.99 67.3955 103.929 68.1815 103.844L71.0595 111.616C71.1885 111.965 71.703 111.883 71.718 111.512L72.0532 103.236C72.8362 103.073 73.6109 102.888 74.3764 102.68L78.4314 109.9C78.6134 110.224 79.1088 110.063 79.0656 109.694L78.1022 101.47C78.8489 101.187 79.5849 100.881 80.3095 100.555L85.4442 107.052C85.6746 107.344 86.1387 107.107 86.0383 106.75L83.7992 98.7735C84.4903 98.3769 85.1686 97.9603 85.8331 97.5245L91.925 103.142C92.1982 103.394 92.6196 103.088 92.4645 102.75L89.0029 95.2176C89.6223 94.7189 90.2267 94.2023 90.8151 93.6684L97.7144 98.2663C98.0236 98.4724 98.392 98.1041 98.1859 97.7949L93.5879 90.8955C94.1218 90.3071 94.6385 89.7028 95.1372 89.0833L102.67 92.5449C103.007 92.7001 103.314 92.2786 103.062 92.0055L97.444 85.9136C97.8798 85.249 98.2964 84.5708 98.6931 83.8796L106.669 86.1187C107.027 86.2191 107.263 85.755 106.972 85.5246L100.475 80.39C100.801 79.6654 101.106 78.9294 101.39 78.1827L109.614 79.146C109.983 79.1892 110.144 78.6938 109.82 78.5119L102.6 74.4569C102.807 73.6913 102.993 72.9166 103.155 72.1336L111.432 71.7985C111.803 71.7834 111.884 71.2689 111.536 71.1399L103.764 68.262C103.848 67.476 103.91 66.6832 103.948 65.8842L112.078 64.257C112.442 64.1841 112.442 63.6632 112.078 63.5903L103.948 61.9631C103.91 61.1642 103.848 60.3714 103.764 59.5854L111.536 56.7074C111.884 56.5784 111.803 56.0639 111.432 56.0488L103.155 55.7137C102.993 54.9307 102.807 54.156 102.6 53.3905L109.82 49.3354C110.144 49.1535 109.983 48.6581 109.614 48.7013L101.39 49.6646C101.106 48.918 100.801 48.182 100.475 47.4574L106.972 42.3227C107.263 42.0923 107.027 41.6282 106.669 41.7286L98.693 43.9677C98.2964 43.2766 97.8798 42.5983 97.444 41.9338L103.062 35.8418C103.314 35.5687 103.007 35.1473 102.67 35.3024L95.137 38.764C94.6384 38.1446 94.1217 37.5403 93.5879 36.9519L98.1859 30.0525C98.392 29.7432 98.0236 29.3749 97.7144 29.581L90.815 34.179C90.2266 33.6451 89.6222 33.1285 89.0028 32.6298L92.4645 25.0971C92.6196 24.7595 92.1982 24.4533 91.925 24.7052L85.833 30.3229C85.1685 29.8872 84.4903 29.4706 83.7991 29.074L86.0383 21.0978C86.1387 20.74 85.6746 20.5035 85.4442 20.7951L80.3094 27.2923C79.5848 26.9661 78.8489 26.6608 78.1022 26.3771L79.0656 18.1529C79.1088 17.7839 78.6134 17.6229 78.4314 17.9469L74.3763 25.1674C73.6108 24.9598 72.8362 24.7743 72.0532 24.6117L71.718 16.3352C71.703 15.9639 71.1885 15.8824 71.0595 16.2309L68.1814 24.0032C67.3955 23.9188 66.6027 23.857 65.8038 23.8186L64.1766 15.6892ZM38.8724 38.4838C41.6677 35.7597 46.1104 36.8307 48.0892 40.195L59.7069 59.9465C60.9688 62.0919 60.9688 64.7527 59.7069 66.898L47.7154 87.2852C45.7173 90.6822 41.2146 91.7318 38.439 88.9339C32.0438 82.4877 28.1009 73.6604 28.1009 63.9237C28.1009 53.9689 32.2224 44.9646 38.8724 38.4838ZM69.365 65.5543C66.9356 65.5543 64.6875 66.8401 63.4558 68.9342L51.403 89.4255C49.4013 92.8287 50.6809 97.2814 54.4854 98.337C57.6062 99.2029 60.8977 99.666 64.2988 99.666C81.2451 99.666 95.4716 88.1674 99.4125 72.6407C100.374 68.8523 97.1937 65.5543 93.2851 65.5543H69.365ZM93.0199 61.2901C97.0049 61.2901 100.207 57.8649 99.0945 54.0385C94.7516 39.1067 80.8173 28.1813 64.2988 28.1813C61.112 28.1813 58.0214 28.588 55.0773 29.3515C51.2185 30.3523 49.8899 34.8466 51.911 38.2827L63.4557 57.9102C64.6874 60.0043 66.9355 61.2901 69.365 61.2901H93.0199ZM63.8923 66.8934C65.5492 66.8934 66.8923 65.5502 66.8923 63.8934C66.8923 62.2365 65.5492 60.8934 63.8923 60.8934C62.2355 60.8934 60.8923 62.2365 60.8923 63.8934C60.8923 65.5502 62.2355 66.8934 63.8923 66.8934Z" fill="url(#paint1_linear_11_360)"/>
<circle cx="64" cy="64" r="4.5" stroke="url(#paint2_linear_11_360)" stroke-width="3"/>
</g>
</g>
<defs>
<filter id="filter0_iii_11_360" x="0" y="0" width="160" height="160" filterUnits="userSpaceOnUse" color-interpolation-filters="sRGB">
<feFlood flood-opacity="0" result="BackgroundImageFix"/>
<feBlend mode="normal" in="SourceGraphic" in2="BackgroundImageFix" result="shape"/>
<feColorMatrix in="SourceAlpha" type="matrix" values="0 0 0 0 0 0 0 0 0 0 0 0 0 0 0 0 0 0 127 0" result="hardAlpha"/>
<feOffset dx="1" dy="1"/>
<feComposite in2="hardAlpha" operator="arithmetic" k2="-1" k3="1"/>
<feColorMatrix type="matrix" values="0 0 0 0 1 0 0 0 0 1 0 0 0 0 1 0 0 0 0.5 0"/>
<feBlend mode="normal" in2="shape" result="effect1_innerShadow_11_360"/>
<feColorMatrix in="SourceAlpha" type="matrix" values="0 0 0 0 0 0 0 0 0 0 0 0 0 0 0 0 0 0 127 0" result="hardAlpha"/>
<feOffset dx="-1" dy="-1"/>
<feComposite in2="hardAlpha" operator="arithmetic" k2="-1" k3="1"/>
<feColorMatrix type="matrix" values="0 0 0 0 0 0 0 0 0 0 0 0 0 0 0 0 0 0 0.3 0"/>
<feBlend mode="normal" in2="effect1_innerShadow_11_360" result="effect2_innerShadow_11_360"/>
<feColorMatrix in="SourceAlpha" type="matrix" values="0 0 0 0 0 0 0 0 0 0 0 0 0 0 0 0 0 0 127 0" result="hardAlpha"/>
<feOffset dx="32" dy="32"/>
<feGaussianBlur stdDeviation="32"/>
<feComposite in2="hardAlpha" operator="arithmetic" k2="-1" k3="1"/>
<feColorMatrix type="matrix" values="0 0 0 0 1 0 0 0 0 1 0 0 0 0 1 0 0 0 0.15 0"/>
<feBlend mode="normal" in2="effect2_innerShadow_11_360" result="effect3_innerShadow_11_360"/>
</filter>
<filter id="filter1_di_11_360" x="15.3354" y="15.4159" width="98.0155" height="98.0155" filterUnits="userSpaceOnUse" color-interpolation-filters="sRGB">
<feFlood flood-opacity="0" result="BackgroundImageFix"/>
<feColorMatrix in="SourceAlpha" type="matrix" values="0 0 0 0 0 0 0 0 0 0 0 0 0 0 0 0 0 0 127 0" result="hardAlpha"/>
<feOffset dx="1" dy="1"/>
<feComposite in2="hardAlpha" operator="out"/>
<feColorMatrix type="matrix" values="0 0 0 0 0 0 0 0 0 0 0 0 0 0 0 0 0 0 0.2 0"/>
<feBlend mode="normal" in2="BackgroundImageFix" result="effect1_dropShadow_11_360"/>
<feBlend mode="normal" in="SourceGraphic" in2="effect1_dropShadow_11_360" result="shape"/>
<feColorMatrix in="SourceAlpha" type="matrix" values="0 0 0 0 0 0 0 0 0 0 0 0 0 0 0 0 0 0 127 0" result="hardAlpha"/>
<feOffset dx="1" dy="1"/>
<feComposite in2="hardAlpha" operator="arithmetic" k2="-1" k3="1"/>
<feColorMatrix type="matrix" values="0 0 0 0 1 0 0 0 0 1 0 0 0 0 1 0 0 0 0.25 0"/>
<feBlend mode="normal" in2="shape" result="effect2_innerShadow_11_360"/>
</filter>
<linearGradient id="paint0_linear_11_360" x1="63.8434" y1="34.2159" x2="63.8434" y2="93.6315" gradientUnits="userSpaceOnUse">
<stop stop-color="#B4B4B8"/>
<stop offset="1" stop-color="#B4B4B8"/>
</linearGradient>
<linearGradient id="paint1_linear_11_360" x1="63.8821" y1="16.703" x2="64.4159" y2="111.906" gradientUnits="userSpaceOnUse">
<stop offset="0.193294" stop-color="#D4D4D8"/>
<stop offset="0.830878" stop-color="#9D9DA1"/>
</linearGradient>
<linearGradient id="paint2_linear_11_360" x1="64" y1="61" x2="64" y2="67" gradientUnits="userSpaceOnUse">
<stop stop-color="#BCBCC0"/>
<stop offset="1" stop-color="#B6B6BA"/>
</linearGradient>
</defs>
</svg>
