<svg width="128" height="128" viewBox="0 0 128 128" fill="none" xmlns="http://www.w3.org/2000/svg">
<g filter="url(#filter0_iii_11_358)">
<rect width="128" height="128" rx="64" fill="url(#paint0_linear_11_358)"/>
<path d="M46.3662 46.8867C44.792 48.7939 42.1279 50.2168 40.0088 50.2168C39.7666 50.2168 39.5244 50.1865 39.373 50.1562C39.3428 50.0352 39.2822 49.6719 39.2822 49.3086C39.2822 46.8867 40.5234 44.4648 41.8555 42.9512C43.5508 40.9531 46.3965 39.4697 48.7578 39.3789C48.8184 39.6514 48.8486 39.9844 48.8486 40.3174C48.8486 42.7393 47.8193 45.1309 46.3662 46.8867ZM48.0312 50.7314C49.3633 50.7314 54.1768 50.8525 57.3252 55.3936C57.0527 55.6055 52.2695 58.2998 52.2695 64.3242C52.2695 71.2871 58.3545 73.7695 58.5361 73.8301C58.5059 73.9814 57.5674 77.1904 55.3271 80.4902C53.3291 83.3662 51.21 86.2725 48.0312 86.2725C44.8223 86.2725 44.0049 84.3955 40.3418 84.3955C36.7393 84.3955 35.4678 86.333 32.5615 86.333C29.625 86.333 27.5967 83.6387 25.2656 80.3691C22.541 76.4941 20.3613 70.5 20.3613 64.8086C20.3613 55.6963 26.2949 50.8525 32.1377 50.8525C35.2256 50.8525 37.7988 52.8809 39.7666 52.8809C41.6133 52.8809 44.4893 50.7314 48.0312 50.7314ZM75.0654 86.6357C68.7686 86.6357 65.7412 83.9717 65.7412 77.6143V59.3594H61.1699V54.1523H65.7412V45.8574H72.4316V54.1523H78.3955V59.3594H72.4316V77.2207C72.4316 80.46 73.8848 81.4287 76.6396 81.4287C77.3359 81.4287 77.9111 81.3682 78.3955 81.3076V86.3633C77.6387 86.4844 76.3975 86.6357 75.0654 86.6357ZM92.5635 86L81.0898 54.1523H88.0527L96.0449 79.6123H96.1963L104.188 54.1523H111L99.5869 86H92.5635Z" fill="white"/>
</g>
<defs>
<filter id="filter0_iii_11_358" x="0" y="0" width="160" height="160" filterUnits="userSpaceOnUse" color-interpolation-filters="sRGB">
<feFlood flood-opacity="0" result="BackgroundImageFix"/>
<feBlend mode="normal" in="SourceGraphic" in2="BackgroundImageFix" result="shape"/>
<feColorMatrix in="SourceAlpha" type="matrix" values="0 0 0 0 0 0 0 0 0 0 0 0 0 0 0 0 0 0 127 0" result="hardAlpha"/>
<feOffset dx="1" dy="1"/>
<feComposite in2="hardAlpha" operator="arithmetic" k2="-1" k3="1"/>
<feColorMatrix type="matrix" values="0 0 0 0 1 0 0 0 0 1 0 0 0 0 1 0 0 0 0.5 0"/>
<feBlend mode="normal" in2="shape" result="effect1_innerShadow_11_358"/>
<feColorMatrix in="SourceAlpha" type="matrix" values="0 0 0 0 0 0 0 0 0 0 0 0 0 0 0 0 0 0 127 0" result="hardAlpha"/>
<feOffset dx="-1" dy="-1"/>
<feComposite in2="hardAlpha" operator="arithmetic" k2="-1" k3="1"/>
<feColorMatrix type="matrix" values="0 0 0 0 0 0 0 0 0 0 0 0 0 0 0 0 0 0 0.3 0"/>
<feBlend mode="normal" in2="effect1_innerShadow_11_358" result="effect2_innerShadow_11_358"/>
<feColorMatrix in="SourceAlpha" type="matrix" values="0 0 0 0 0 0 0 0 0 0 0 0 0 0 0 0 0 0 127 0" result="hardAlpha"/>
<feOffset dx="32" dy="32"/>
<feGaussianBlur stdDeviation="32"/>
<feComposite in2="hardAlpha" operator="arithmetic" k2="-1" k3="1"/>
<feColorMatrix type="matrix" values="0 0 0 0 1 0 0 0 0 1 0 0 0 0 1 0 0 0 0.15 0"/>
<feBlend mode="normal" in2="effect2_innerShadow_11_358" result="effect3_innerShadow_11_358"/>
</filter>
<linearGradient id="paint0_linear_11_358" x1="64" y1="0" x2="64" y2="128" gradientUnits="userSpaceOnUse">
<stop stop-color="#323232"/>
<stop offset="1" stop-color="#131313"/>
</linearGradient>
</defs>
</svg>
